#!OML:ASF G:\JayActor3\Patient Classification 1\Patient 1\Session 6\male.ASF
:FULLY-SPECIFIED
:DEGREES
770
root 9.07142 12.1026 -5.97862 25.215 -11.2471 8.92646
lowerback 55.701 -1.72898 9.12595
upperback 12.2111 3.08774 2.99134
thorax -7.06862 1.30945 -2.06694
lowerneck 5.39367 -11.0754 0.35332
upperneck -19.514 -16.2108 -1.66696
head -7.03947 -7.92079 0.685201
rclavicle 4.13472e-014 -6.75868e-015
rhumerus 37.3667 -16.6451 -60.4018
rradius 43.732
rwrist 26.5326
rhand -58.8394 11.2642
rfingers 7.12502
rthumb -31.0463 -16.1284
lclavicle 4.13472e-014 -6.75868e-015
lhumerus 23.2308 0.12374 63.0176
lradius 129.067
lwrist 3.03821
lhand -53.7284 -33.4049
lfingers 7.12502
lthumb -26.1633 -5.18778
rfemur -100.555 -16.0197 27.2371
rtibia 103.752
rfoot -32.1337 -12.3795
rtoes -5.53578
lfemur -90.002 -4.49653 -34.9761
ltibia 94.3661
lfoot -27.6142 9.4719
ltoes -10.2572
771
root 9.07061 12.0906 -5.97894 25.231 -11.2652 8.94275
lowerback 55.8347 -1.7206 9.09953
upperback 12.2025 3.09783 2.99221
thorax -7.09008 1.31157 -2.05523
lowerneck 5.40405 -11.0792 0.337911
upperneck -19.5564 -16.2188 -1.6453
head -7.052 -7.92487 0.697006
rclavicle -6.36111e-015 3.29486e-014
rhumerus 37.5185 -16.7363 -60.5357
rradius 43.5419
rwrist 26.6495
rhand -58.894 10.934
rfingers 7.12502
rthumb -31.0983 -16.4487
lclavicle -6.36111e-015 3.29486e-014
lhumerus 23.2275 0.14768 63.0316
lradius 129.045
lwrist 3.0525
lhand -53.7187 -33.4263
lfingers 7.12502
lthumb -26.1541 -5.20775
rfemur -100.679 -16.0038 27.2437
rtibia 103.873
rfoot -32.1595 -12.4123
rtoes -5.54456
lfemur -90.1114 -4.48481 -35.0135
ltibia 94.4897
lfoot -27.6447 9.47503
ltoes -10.2254
772
root 9.07015 12.0787 -5.97931 25.2528 -11.2738 8.96174
lowerback 55.9495 -1.71995 9.08353
upperback 12.1959 3.10266 2.99183
thorax -7.10689 1.31205 -2.04761
lowerneck 5.41543 -11.0814 0.32598
upperneck -19.5995 -16.2251 -1.62878
head -7.06569 -7.92783 0.70676
rclavicle 1.59028e-014 -4.60187e-014
rhumerus 37.6599 -16.8228 -60.6609
rradius 43.3625
rwrist 26.7681
rhand -58.9595 10.5996
rfingers 7.12502
rthumb -31.1607 -16.7711
lclavicle 1.59028e-014 -4.60187e-014
lhumerus 23.2302 0.168972 63.0504
lradius 129.019
lwrist 3.06182
lhand -53.7022 -33.4461
lfingers 7.12502
lthumb -26.1383 -5.22525
rfemur -100.812 -15.9973 27.2518
rtibia 103.994
rfoot -32.1815 -12.4465
rtoes -5.56187
lfemur -90.2262 -4.49008 -35.047
ltibia 94.6102
lfoot -27.6707 9.48441
ltoes -10.1792
773
root 9.07065 12.0662 -5.97962 25.2852 -11.2564 8.98888
lowerback 56.0328 -1.74337 9.09532
upperback 12.1921 3.09211 2.98846
thorax -7.11607 1.30717 -2.04949
lowerneck 5.42657 -11.0825 0.317989
upperneck -19.6424 -16.2304 -1.61746
head -7.08003 -7.93014 0.714315
rclavicle 2.8625e-014 -2.16551e-014
rhumerus 37.7923 -16.906 -60.777
rradius 43.1932
rwrist 26.8994
rhand -59.0343 10.2838
rfingers 7.12502
rthumb -31.232 -17.0732
lclavicle 2.8625e-014 -2.16551e-014
lhumerus 23.2386 0.187915 63.0744
lradius 128.99
lwrist 3.06931
lhand -53.6793 -33.4577
lfingers 7.12502
lthumb -26.1163 -5.23359
rfemur -100.969 -16.0212 27.2649
rtibia 104.12
rfoot -32.1973 -12.4755
rtoes -5.58557
lfemur -90.3526 -4.53451 -35.0764
ltibia 94.7284
lfoot -27.6876 9.50434
ltoes -10.1292
774
root 9.07124 12.054 -5.98002 25.3168 -11.2394 9.01379
lowerback 56.1108 -1.76599 9.10797
upperback 12.1895 3.08232 2.9856
thorax -7.1234 1.30271 -2.0516
lowerneck 5.43693 -11.083 0.312411
upperneck -19.6843 -16.2353 -1.60996
head -7.09447 -7.93207 0.72027
rclavicle -1.59028e-014 1.62382e-014
rhumerus 37.9188 -16.988 -60.8857
rradius 43.0315
rwrist 27.055
rhand -59.114 10.0121
rfingers 7.12502
rthumb -31.308 -17.3302
lclavicle -1.59028e-014 1.62382e-014
lhumerus 23.2513 0.20507 63.103
lradius 128.959
lwrist 3.07912
lhand -53.6511 -33.4577
lfingers 7.12502
lthumb -26.0893 -5.22962
rfemur -101.119 -16.0395 27.2734
rtibia 104.243
rfoot -32.2131 -12.505
rtoes -5.6092
lfemur -90.4759 -4.58002 -35.1021
ltibia 94.8434
lfoot -27.7037 9.5278
ltoes -10.092
775
root 9.0719 12.0424 -5.9805 25.3467 -11.2226 9.03624
lowerback 56.1855 -1.78813 9.1211
upperback 12.1876 3.07295 2.98325
thorax -7.12962 1.29848 -2.0536
lowerneck 5.44658 -11.083 0.307038
upperneck -19.7251 -16.2397 -1.60382
head -7.10856 -7.93364 0.725649
rclavicle 0 3.44177e-014
rhumerus 38.0423 -17.0709 -60.9901
rradius 42.8758
rwrist 27.2431
rhand -59.1923 9.80464
rfingers 7.12502
rthumb -31.3825 -17.5232
lclavicle 0 3.44177e-014
lhumerus 23.2665 0.220874 63.135
lradius 128.928
lwrist 3.09648
lhand -53.6177 -33.4432
lfingers 7.12502
lthumb -26.0573 -5.21037
rfemur -101.259 -16.05 27.2748
rtibia 104.362
rfoot -32.2303 -12.5348
rtoes -5.62835
lfemur -90.5949 -4.62549 -35.1243
ltibia 94.955
lfoot -27.7185 9.55293
ltoes -10.0837
776
root 9.07261 12.0311 -5.98105 25.3741 -11.2058 9.05597
lowerback 56.2586 -1.81044 9.13465
upperback 12.1858 3.06346 2.98104
thorax -7.13553 1.29419 -2.05561
lowerneck 5.45646 -11.0822 0.299921
upperneck -19.7656 -16.2428 -1.59661
head -7.12233 -7.93459 0.731494
rclavicle 1.59028e-014 -2.61806e-014
rhumerus 38.1647 -17.1548 -61.0931
rradius 42.7249
rwrist 27.4645
rhand -59.2641 9.67707
rfingers 7.12502
rthumb -31.451 -17.6374
lclavicle 1.59028e-014 -2.61806e-014
lhumerus 23.2821 0.235669 63.1676
lradius 128.898
lwrist 3.12544
lhand -53.5798 -33.4154
lfingers 7.12502
lthumb -26.021 -5.17721
rfemur -101.389 -16.0524 27.2689
rtibia 104.476
rfoot -32.2491 -12.5639
rtoes -5.63958
lfemur -90.709 -4.66989 -35.143
ltibia 95.0636
lfoot -27.7314 9.5784
ltoes -10.1135
777
root 9.07332 12.0202 -5.98167 25.3989 -11.1889 9.07252
lowerback 56.3302 -1.83314 9.1489
upperback 12.1841 3.05371 2.97887
thorax -7.14104 1.28979 -2.05778
lowerneck 5.46683 -11.0806 0.289729
upperneck -19.8061 -16.2445 -1.58667
head -7.1357 -7.93486 0.7385
rclavicle -4.77083e-014 -2.52767e-014
rhumerus 38.287 -17.2395 -61.1963
rradius 42.5783
rwrist 27.7128
rhand -59.3283 9.63639
rfingers 7.12502
rthumb -31.5122 -17.6662
lclavicle -4.77083e-014 -2.52767e-014
lhumerus 23.2969 0.249113 63.1991
lradius 128.869
lwrist 3.16785
lhand -53.5378 -33.3746
lfingers 7.12502
lthumb -25.9808 -5.13055
rfemur -101.509 -16.047 27.2571
rtibia 104.586
rfoot -32.2698 -12.5921
rtoes -5.64331
lfemur -90.8186 -4.71223 -35.1578
ltibia 95.1698
lfoot -27.7427 9.60212
ltoes -10.1763
778
root 9.07401 12.0097 -5.98235 25.4212 -11.1718 9.08576
lowerback 56.3996 -1.85663 9.16401
upperback 12.1828 3.04318 2.97595
thorax -7.14597 1.28513 -2.06085
lowerneck 5.47754 -11.0781 0.276645
upperneck -19.847 -16.2446 -1.57366
head -7.14869 -7.93437 0.746729
rclavicle -1.24042e-013 -6.90777e-015
rhumerus 38.4093 -17.3224 -61.3005
rradius 42.4363
rwrist 27.9739
rhand -59.3884 9.67629
rfingers 7.12502
rthumb -31.5694 -17.6151
lclavicle -1.24042e-013 -6.90777e-015
lhumerus 23.3103 0.261543 63.2264
lradius 128.844
lwrist 3.22335
lhand -53.4923 -33.3226
lfingers 7.12502
lthumb -25.9372 -5.07216
rfemur -101.618 -16.0341 27.2407
rtibia 104.691
rfoot -32.2921 -12.6203
rtoes -5.64235
lfemur -90.9244 -4.75153 -35.1692
ltibia 95.2741
lfoot -27.7525 9.62382
ltoes -10.2603
779
root 9.07465 11.9994 -5.98309 25.4417 -11.1548 9.09599
lowerback 56.4651 -1.8811 9.18012
upperback 12.1822 3.03138 2.97163
thorax -7.14956 1.28009 -2.06543
lowerneck 5.48839 -11.0745 0.261375
upperneck -19.8886 -16.2427 -1.55792
head -7.16152 -7.93302 0.755968
rclavicle 3.18055e-015 -1.66482e-014
rhumerus 38.5312 -17.3996 -61.4045
rradius 42.299
rwrist 28.2297
rhand -59.4518 9.78191
rfingers 7.12502
rthumb -31.6298 -17.4976
lclavicle 3.18055e-015 -1.66482e-014
lhumerus 23.322 0.273197 63.2477
lradius 128.821
lwrist 3.28834
lhand -53.4449 -33.2627
lfingers 7.12502
lthumb -25.8919 -5.00564
rfemur -101.721 -16.0148 27.2214
rtibia 104.794
rfoot -32.315 -12.6499
rtoes -5.64092
lfemur -91.0276 -4.78757 -35.1777
ltibia 95.3772
lfoot -27.7619 9.64348
ltoes -10.3476
780
root 9.07523 11.9892 -5.98389 25.4607 -11.138 9.10394
lowerback 56.5249 -1.90663 9.19729
upperback 12.1829 3.01801 2.9656
thorax -7.15111 1.27462 -2.0718
lowerneck 5.49888 -11.07 0.244566
upperneck -19.9312 -16.2393 -1.54009
head -7.17425 -7.93097 0.765933
rclavicle 8.26944e-014 8.32908e-014
rhumerus 38.6522 -17.4691 -61.5075
rradius 42.1665
rwrist 28.4654
rhand -59.525 9.93132
rfingers 7.12502
rthumb -31.6995 -17.3344
lclavicle 8.26944e-014 8.32908e-014
lhumerus 23.3329 0.284811 63.2622
lradius 128.801
lwrist 3.35758
lhand -53.3972 -33.2006
lfingers 7.12502
lthumb -25.8462 -4.93684
rfemur -101.818 -15.9904 27.2001
rtibia 104.894
rfoot -32.3378 -12.6823
rtoes -5.64188
lfemur -91.1285 -4.82084 -35.1843
ltibia 95.479
lfoot -27.7716 9.66225
ltoes -10.4242
781
root 9.07577 11.9792 -5.98475 25.4784 -11.1211 9.11081
lowerback 56.5784 -1.93326 9.21541
upperback 12.185 3.00294 2.958
thorax -7.15061 1.26867 -2.07974
lowerneck 5.50885 -11.0648 0.226881
upperneck -19.9748 -16.2349 -1.52124
head -7.18705 -7.92844 0.776253
rclavicle -7.31528e-014 -4.4006e-014
rhumerus 38.7718 -17.5301 -61.6089
rradius 42.0388
rwrist 28.6722
rhand -59.6111 10.101
rfingers 7.12502
rthumb -31.7815 -17.1485
lclavicle -7.31528e-014 -4.4006e-014
lhumerus 23.3429 0.297201 63.2703
lradius 128.783
lwrist 3.42448
lhand -53.3501 -33.1421
lfingers 7.12502
lthumb -25.801 -4.87177
rfemur -101.911 -15.963 27.1775
rtibia 104.993
rfoot -32.3599 -12.7185
rtoes -5.64683
lfemur -91.227 -4.85259 -35.1902
ltibia 95.5795
lfoot -27.7823 9.68094
ltoes -10.4812
782
root 9.07631 11.9693 -5.98564 25.4939 -11.1034 9.11799
lowerback 56.626 -1.96167 9.23483
upperback 12.1881 2.98572 2.94888
thorax -7.14839 1.26205 -2.08914
lowerneck 5.51829 -11.059 0.208557
upperneck -20.0193 -16.2298 -1.50203
head -7.19999 -7.92552 0.786714
rclavicle 3.18055e-015 -8.67447e-014
rhumerus 38.8899 -17.5836 -61.7096
rradius 41.9161
rwrist 28.8474
rhand -59.7093 10.2689
rfingers 7.12502
rthumb -31.8751 -16.962
lclavicle 3.18055e-015 -8.67447e-014
lhumerus 23.3521 0.311663 63.2729
lradius 128.768
lwrist 3.48362
lhand -53.3038 -33.0964
lfingers 7.12502
lthumb -25.7567 -4.81968
rfemur -102.001 -15.9355 27.1534
rtibia 105.09
rfoot -32.3813 -12.7581
rtoes -5.65566
lfemur -91.3217 -4.88459 -35.1963
ltibia 95.678
lfoot -27.794 9.70049
ltoes -10.5175
783
root 9.07686 11.9596 -5.98659 25.5067 -11.0843 9.12658
lowerback 56.6686 -1.9927 9.25605
upperback 12.1917 2.96586 2.93799
thorax -7.14525 1.25453 -2.10025
lowerneck 5.52694 -11.0527 0.18964
upperneck -20.0638 -16.2238 -1.48272
head -7.21272 -7.92218 0.797166
rclavicle 1.27222e-014 3.35946e-014
rhumerus 39.0065 -17.6317 -61.8121
rradius 41.7987
rwrist 28.9936
rhand -59.8148 10.4136
rfingers 7.12502
rthumb -31.9756 -16.7973
lclavicle 1.27222e-014 3.35946e-014
lhumerus 23.3598 0.329387 63.2706
lradius 128.755
lwrist 3.53108
lhand -53.2575 -33.0633
lfingers 7.12502
lthumb -25.7124 -4.78017
rfemur -102.088 -15.9102 27.128
rtibia 105.186
rfoot -32.4024 -12.8009
rtoes -5.66769
lfemur -91.4116 -4.9184 -35.2034
ltibia 95.7743
lfoot -27.8061 9.72128
ltoes -10.5381
